<svg xmlns="http://www.w3.org/2000/svg" width="208.314" height="30" viewBox="0 0 208.314 30"><defs><style>.a,.b,.d{fill:#333;}.a,.b{font-size:22px;}.a{font-family:OpenSans-Bold, Open Sans;font-weight:700;}.b{font-family:OpenSans-Light, Open Sans;font-weight:300;}.c{fill:#1a79ff;}</style></defs><text class="a" transform="translate(32.616 24)"><tspan x="0" y="0">Profile</tspan></text><text class="b" transform="translate(107.314 24)"><tspan x="0" y="0">connector</tspan></text><g transform="translate(-270 -147)"><path class="c" d="M321.409,722.622l5.712,5.916s2.448,2.2,4.732,0,5.467-5.916,5.467-5.916.571-.893,1.224-.335,1.917,1.935,1.917,1.935a.855.855,0,0,1-.163,1.042c-.49.558-9.955,10.6-9.955,10.6a1.632,1.632,0,0,1-1.632,0c-.734-.521-10.24-10.567-10.24-10.567a.789.789,0,0,1,0-1.153c.571-.633,1.754-1.711,1.754-1.711S320.742,721.931,321.409,722.622Z" transform="translate(-48.218 -559.144)"/><path class="d" d="M-2541.357,664.909h-6.01c-.219,0,.048-.6.209-1.185a10.4,10.4,0,0,0,.261-1.3,2.864,2.864,0,0,0-.261-1.74,7.654,7.654,0,0,1-1.635-4.153,5.561,5.561,0,0,1,1.9-4.28,5.085,5.085,0,0,1,3.7-1.012,5.413,5.413,0,0,1,4.656,2.847,3.65,3.65,0,0,1,.234,1.991,2.3,2.3,0,0,0,.636,1.674c.525.744.684.927.708,1.174s-.094.355-.854.394-.691.2-.724.811-.036.966-.086,1.743-.124.833-1.053.837-1.422-.1-1.676.42S-2541.069,664.909-2541.357,664.909Z" transform="translate(2824.618 -499.062)"/></g></svg>