<svg xmlns="http://www.w3.org/2000/svg" width="343.783" height="192.912" viewBox="0 0 343.783 192.912"><defs><style>.a{fill:#e7f3fe;}.a,.o{opacity:0.2;}.b{fill:#9ec8ff;}.c{fill:#fff;}.d{opacity:0.8;}.e{fill:#f37168;}.f{fill:#7479c5;}.g{opacity:0.7;}.h,.o{fill:#99bbeb;}.i{fill:#9bd6e8;}.j{fill:#3a384d;}.k{fill:#f09959;}.l{fill:#e38540;}.m{fill:#7a4e34;}.n{fill:#d54a41;}.p{fill:#2e2d3d;}.q{fill:#d5e1e8;}.r{fill:#bdccd4;}.s{fill:#2e5b9a;}.t{fill:#6791c9;}.u{fill:#75a1de;}.v{fill:#f2e5de;}.w{fill:#303c60;}.x{fill:#74b570;}.y{fill:#9cd499;}</style></defs><g transform="translate(0)"><path class="a" d="M278.974,227.96c46.957-17.432,94.683-2.02,127.051,31.547s100.3-23.169,136.325,10.344c24.587,22.871,13.325,81.673-20.388,107.142-45.823,34.618-185.176,17.052-215.32,11.161-34.729-6.787-60.118-27.38-70.434-52.373C211.354,275.559,258.223,235.664,278.974,227.96Z" transform="translate(-229.12 -210.077)"/><g transform="translate(35.605)"><g transform="translate(97.898 0)"><path class="b" d="M1487.2,168.664a38.976,38.976,0,0,0,.243-4.328c0-.772-.025-1.538-.07-2.3l-7.152-2.314a31.436,31.436,0,0,0-2.532-8.569l4.742-5.835a38.621,38.621,0,0,0-3.756-5.46l-7.152,2.334a31.781,31.781,0,0,0-7.081-5.443l.407-7.515a38.26,38.26,0,0,0-6.244-2.213l-4.417,6.095a31.8,31.8,0,0,0-8.929-.234l-4.089-6.32a38.247,38.247,0,0,0-6.353,1.877l.009,7.526a31.728,31.728,0,0,0-7.359,5.062l-7.017-2.707a38.663,38.663,0,0,0-4.041,5.254l4.428,6.079a31.435,31.435,0,0,0-2.985,8.422l-7.263,1.933a38.95,38.95,0,0,0-.243,4.328c0,.772.025,1.538.07,2.3l7.152,2.314a31.449,31.449,0,0,0,2.532,8.569l-4.742,5.835a38.623,38.623,0,0,0,3.756,5.461l7.153-2.334a31.777,31.777,0,0,0,7.081,5.443l-.407,7.515a38.262,38.262,0,0,0,6.244,2.213l4.417-6.095a31.8,31.8,0,0,0,8.929.234l4.089,6.32a38.239,38.239,0,0,0,6.353-1.877l-.009-7.526a31.718,31.718,0,0,0,7.359-5.062l7.017,2.707a38.69,38.69,0,0,0,4.041-5.254l-4.428-6.079a31.43,31.43,0,0,0,2.985-8.422Zm-38.3,10.791a15.119,15.119,0,1,1,15.119-15.119A15.119,15.119,0,0,1,1448.892,179.456Z" transform="translate(-1410.344 -126.563)"/><g transform="translate(58.605 28.704)"><path class="c" d="M1929.439,406.85a.565.565,0,0,1-.434-.927,25.58,25.58,0,0,0,4.507-24.637.565.565,0,0,1,1.069-.368,26.711,26.711,0,0,1-4.706,25.728A.565.565,0,0,1,1929.439,406.85Z" transform="translate(-1928.874 -380.537)"/></g><g transform="translate(47.43 12.665)"><path class="c" d="M1839.55,245.288a.563.563,0,0,1-.387-.154,25.387,25.387,0,0,0-8.791-5.416.565.565,0,0,1,.385-1.063,26.511,26.511,0,0,1,9.181,5.656.565.565,0,0,1-.388.977Z" transform="translate(-1829.999 -238.622)"/></g><g transform="translate(32.119 11.107)"><path class="c" d="M1695.094,226.764a.565.565,0,0,1-.138-1.113,26.769,26.769,0,0,1,6.546-.81.565.565,0,0,1,0,1.13,25.635,25.635,0,0,0-6.27.775A.569.569,0,0,1,1695.094,226.764Z" transform="translate(-1694.53 -224.841)"/></g></g><g transform="translate(0 108.673)"><path class="b" d="M597.385,1117.256a26.974,26.974,0,0,0,.168-3c0-.535-.018-1.066-.049-1.593l-4.953-1.6a21.772,21.772,0,0,0-1.754-5.935l3.285-4.042a26.775,26.775,0,0,0-2.6-3.782l-4.954,1.617a22.009,22.009,0,0,0-4.9-3.77l.282-5.2a26.491,26.491,0,0,0-4.325-1.533l-3.059,4.221a22.043,22.043,0,0,0-6.184-.162l-2.832-4.378a26.5,26.5,0,0,0-4.4,1.3l.006,5.213a21.979,21.979,0,0,0-5.1,3.506l-4.86-1.875a26.818,26.818,0,0,0-2.8,3.639l3.067,4.21a21.774,21.774,0,0,0-2.068,5.834l-5.031,1.339a26.964,26.964,0,0,0-.169,3c0,.534.018,1.065.049,1.593l4.953,1.6a21.764,21.764,0,0,0,1.754,5.935l-3.284,4.042a26.75,26.75,0,0,0,2.6,3.782l4.954-1.617a22.007,22.007,0,0,0,4.9,3.77l-.282,5.205a26.485,26.485,0,0,0,4.325,1.533l3.059-4.222a22.033,22.033,0,0,0,6.184.162l2.832,4.378a26.49,26.49,0,0,0,4.4-1.3l-.006-5.213a21.98,21.98,0,0,0,5.1-3.506l4.86,1.875a26.788,26.788,0,0,0,2.8-3.639l-3.067-4.21a21.764,21.764,0,0,0,2.068-5.833Zm-26.532,7.475a10.472,10.472,0,1,1,10.472-10.472A10.472,10.472,0,0,1,570.853,1124.731Z" transform="translate(-544.153 -1088.095)"/><g transform="translate(40.418 19.708)"><path class="c" d="M902.336,1281.044a.565.565,0,0,1-.434-.926,17.543,17.543,0,0,0,3.091-16.9.565.565,0,0,1,1.069-.368,18.673,18.673,0,0,1-3.29,17.988A.564.564,0,0,1,902.336,1281.044Z" transform="translate(-901.771 -1262.472)"/></g><g transform="translate(32.678 8.599)"><path class="c" d="M840.075,1169.139a.562.562,0,0,1-.387-.154,17.412,17.412,0,0,0-6.029-3.715.565.565,0,0,1,.385-1.062,18.536,18.536,0,0,1,6.419,3.954.565.565,0,0,1-.388.977Z" transform="translate(-833.286 -1164.174)"/></g><g transform="translate(22.073 7.52)"><path class="c" d="M740.019,1156.309a.565.565,0,0,1-.138-1.113,18.708,18.708,0,0,1,4.577-.566.565.565,0,0,1,0,1.13,17.577,17.577,0,0,0-4.3.532A.566.566,0,0,1,740.019,1156.309Z" transform="translate(-739.454 -1154.63)"/></g></g><path class="b" d="M2013.971,602.432q0-.438-.024-.871l3.711-2.98a19.765,19.765,0,0,0-1.348-4.264l-4.792-.362a15.954,15.954,0,0,0-4.148-4.4l-.016-4.775a19.784,19.784,0,0,0-4.249-1.639l-3.275,3.525a15.931,15.931,0,0,0-5.889.462l-3.756-2.975a19.893,19.893,0,0,0-3.972,2.3l.71,4.734a15.9,15.9,0,0,0-3.346,4.882l-4.672,1.083a19.907,19.907,0,0,0-.69,4.5l4.115,2.379a15.76,15.76,0,0,0,1.76,5.815l-2.06,4.315a20.009,20.009,0,0,0,3.027,3.294l4.413-1.729a15.763,15.763,0,0,0,5.818,2.308l2.08,4.282c.248.009.5.015.746.015a20.026,20.026,0,0,0,3.649-.335l1.4-4.536a15.846,15.846,0,0,0,5.475-3.179l4.638,1.042a19.938,19.938,0,0,0,2.471-3.649l-2.688-3.948A15.835,15.835,0,0,0,2013.971,602.432Zm-16.035,6.988a6.68,6.68,0,1,1,6.68-6.68A6.68,6.68,0,0,1,1997.936,609.42Z" transform="translate(-1816.136 -531.536)"/></g><g transform="translate(258.415 16.945)"><g class="d" transform="translate(27.016 1.681)"><path class="b" d="M2764.357,305.15h-5.741a4.026,4.026,0,0,1-4.021-4.021v-5.742a4.026,4.026,0,0,1,4.021-4.021h5.741a4.025,4.025,0,0,1,4.021,4.021v5.742A4.025,4.025,0,0,1,2764.357,305.15Zm-5.741-12.2a2.441,2.441,0,0,0-2.439,2.438v5.742a2.441,2.441,0,0,0,2.439,2.438h5.741a2.441,2.441,0,0,0,2.439-2.438v-5.742a2.441,2.441,0,0,0-2.439-2.438Z" transform="translate(-2754.595 -291.367)"/></g><g class="d" transform="translate(0 1.681)"><path class="b" d="M2525.323,305.15h-5.742a4.025,4.025,0,0,1-4.021-4.021v-5.742a4.025,4.025,0,0,1,4.021-4.021h5.742a4.025,4.025,0,0,1,4.021,4.021v5.742A4.025,4.025,0,0,1,2525.323,305.15Zm-5.742-12.2a2.441,2.441,0,0,0-2.438,2.438v5.742a2.441,2.441,0,0,0,2.438,2.438h5.742a2.441,2.441,0,0,0,2.438-2.438v-5.742a2.441,2.441,0,0,0-2.438-2.438Z" transform="translate(-2515.56 -291.367)"/></g><g transform="translate(2.445)"><path class="e" d="M2542,288.613h-.032a.679.679,0,0,1-.506-.265l-4.126-5.383a.678.678,0,1,1,1.076-.825l3.639,4.747,9.5-10.18a.678.678,0,1,1,.991.925L2542.5,288.4A.678.678,0,0,1,2542,288.613Z" transform="translate(-2537.197 -276.491)"/></g></g><path class="f" d="M727.526,1701.855c-23.505-1.149-103.466.8-127.785,1.557s-52.547-1-67.21-3.59-99.421.22-95.575,7.18,37.764,3.113,76.227,5.911,124.967-.349,144.479,0,37.405-.7,62.551-2.1S741.151,1702.521,727.526,1701.855Z" transform="translate(-413.354 -1521.169)"/><g class="g" transform="translate(24.784 35.153)"><rect class="h" width="49.135" height="80.535" transform="translate(0 0)"/><rect class="c" width="44.947" height="75.825" transform="translate(2.573 1.641)"/><g transform="translate(5.178 4.723)"><g transform="translate(10.839 4.655)"><path class="i" d="M590.122,683.436c1.692-3.639,4.555-4.8,9.257-4.8,5.6,0,8.505,2.028,9.329,4.981C598.683,683.749,590.122,683.436,590.122,683.436Z" transform="translate(-590.122 -660.768)"/><path class="j" d="M599.2,520.739c-2.37.665-2.266,2-3.056,3.233s-2.506,2.06-2.712,2.884.529,2.541-.343,3.5-1.167,1.442-.824,2.4,1.1,2.472,1.167,2.678a3.849,3.849,0,0,0,2.2,1.854,24.764,24.764,0,0,1,4.463,1.03c1.1.481,4.631-.615,6.592-.547s3.3-1.376,3.159-2.337,1.446-2.884,1.442-4.532c0-1.77-2.06-3.09-2.609-4.257s.069-3.227-1.991-4.448a11.845,11.845,0,0,0-3.227-1.046A7.64,7.64,0,0,0,599.2,520.739Z" transform="translate(-591.9 -520.576)"/><path class="k" d="M657.61,611.646c-.536.791-.929.824-1.511,0a7.523,7.523,0,0,1-1.373-2.9v-7.538a1.377,1.377,0,0,1,1.373-1.373h1.511a1.377,1.377,0,0,1,1.373,1.373v7.538A7.629,7.629,0,0,1,657.61,611.646Z" transform="translate(-647.424 -590.877)"/><path class="l" d="M657.61,599.835H656.1a1.377,1.377,0,0,0-1.373,1.373v6.726c1.7.54,3.244-.533,4.257-1.743v-4.983A1.377,1.377,0,0,0,657.61,599.835Z" transform="translate(-647.424 -590.877)"/><ellipse class="k" cx="4.566" cy="6.222" rx="4.566" ry="6.222" transform="translate(4.864 2.812)"/><path class="j" d="M636.349,537.421c-2.884,4.875-7.141,4.395-7.141,4.395s.1-6.455,3.485-6.8,5.373,1.014,6.06,3.254a5.526,5.526,0,0,1,0,3.716,5.929,5.929,0,0,1-1.648-2.232A16.033,16.033,0,0,1,636.349,537.421Z" transform="translate(-624.791 -533.339)"/><ellipse class="k" cx="1.202" cy="1.803" rx="1.202" ry="1.803" transform="translate(2.387 8.341) rotate(-25.405)"/><path class="k" d="M706.063,590.3c-.427.9-.287,1.859.312,2.144s1.432-.213,1.859-1.113.287-1.859-.312-2.144S706.49,589.4,706.063,590.3Z" transform="translate(-692.74 -581.362)"/><path class="c" d="M661.805,630.368a1.977,1.977,0,0,1-3.433,0Z" transform="translate(-650.658 -617.959)"/></g><path class="h" d="M620.633,787.432H609.1a1.341,1.341,0,0,1,0-2.682h11.532a1.341,1.341,0,0,1,0,2.682Z" transform="translate(-594.927 -750.238)"/><path class="h" d="M606.174,823.884H590.42a1.341,1.341,0,0,1,0-2.682h15.755a1.341,1.341,0,0,1,0,2.682Z" transform="translate(-578.358 -782.57)"/><path class="h" d="M533.318,963.813H495a.778.778,0,0,1,0-1.556h38.323a.778.778,0,1,1,0,1.556Z" transform="translate(-494.217 -907.683)"/><path class="h" d="M533.318,995.809H495a.778.778,0,0,1,0-1.556h38.323a.778.778,0,1,1,0,1.556Z" transform="translate(-494.217 -936.062)"/><path class="h" d="M533.318,1027.805H495a.778.778,0,1,1,0-1.556h38.323a.778.778,0,1,1,0,1.556Z" transform="translate(-494.217 -964.442)"/><g transform="translate(4.749)"><path class="h" d="M565.227,507.605h-27.6a1.391,1.391,0,0,1-1.389-1.389v-25.44a1.391,1.391,0,0,1,1.389-1.389h27.6a1.391,1.391,0,0,1,1.389,1.389v25.44A1.391,1.391,0,0,1,565.227,507.605Zm-27.6-27.088a.262.262,0,0,0-.259.259v25.44a.262.262,0,0,0,.259.259h27.6a.262.262,0,0,0,.259-.259v-25.44a.262.262,0,0,0-.259-.259Z" transform="translate(-536.235 -479.387)"/></g><g transform="translate(7.535 44.812)"><path class="h" d="M563.473,875.882l.8,1.619,1.787.26-1.293,1.26.305,1.78-1.6-.84-1.6.84.305-1.78-1.293-1.26,1.787-.26Z" transform="translate(-560.887 -875.882)"/><path class="h" d="M621.387,875.882l.8,1.619,1.787.26-1.293,1.26.305,1.78-1.6-.84-1.6.84.305-1.78-1.293-1.26,1.787-.26Z" transform="translate(-612.256 -875.882)"/><path class="h" d="M679.3,875.882l.8,1.619,1.787.26-1.293,1.26.305,1.78-1.6-.84-1.6.84.305-1.78-1.293-1.26,1.787-.26Z" transform="translate(-663.625 -875.882)"/><path class="h" d="M737.216,875.882l.8,1.619,1.787.26-1.293,1.26.305,1.78-1.6-.84-1.6.84.305-1.78-1.293-1.26,1.787-.26Z" transform="translate(-714.993 -875.882)"/></g></g></g><g class="g" transform="translate(134.325 35.153)"><rect class="h" width="49.135" height="80.535" transform="translate(0 0)"/><rect class="c" width="44.947" height="75.825" transform="translate(2.573 1.641)"/><g transform="translate(5.178 4.723)"><g transform="translate(10.839 5.139)"><path class="m" d="M1578.225,596.877c0,3.607,2.172,9.428,7.3,9.241s6.257-5.735,6.455-7.3S1578.225,596.877,1578.225,596.877Z" transform="translate(-1576.09 -588.738)"/><path class="n" d="M1559.335,683.436c1.692-3.639,4.555-4.8,9.257-4.8,5.6,0,8.505,2.028,9.329,4.981C1567.9,683.749,1559.335,683.436,1559.335,683.436Z" transform="translate(-1559.335 -661.252)"/><path class="k" d="M1626.824,611.646c-.536.791-.929.824-1.511,0a7.524,7.524,0,0,1-1.373-2.9v-7.538a1.377,1.377,0,0,1,1.373-1.373h1.511a1.377,1.377,0,0,1,1.373,1.373v7.538A7.631,7.631,0,0,1,1626.824,611.646Z" transform="translate(-1616.638 -591.361)"/><path class="l" d="M1626.824,599.835h-1.511a1.377,1.377,0,0,0-1.373,1.373v6.726c1.7.54,3.244-.533,4.257-1.743v-4.983A1.377,1.377,0,0,0,1626.824,599.835Z" transform="translate(-1616.638 -591.361)"/><ellipse class="k" cx="4.566" cy="6.222" rx="4.566" ry="6.222" transform="translate(4.864 2.328)"/><path class="m" d="M1587.909,528.681c-.543,1.913-1.732,1.891-3.39,2.52a4.5,4.5,0,0,0-2.993,2.485c-.692,1.561.314,6.112.314,6.112s-4.2-3.142-3.713-8.083,3.4-6.854,6.141-6.854a4.4,4.4,0,0,1,3.784,1.671,4.107,4.107,0,0,1,2.842,1.642c1.857,2.2,1.285,7.54,0,9.454s-2.142,2.513-2.114,2.427,1.2-4.48.571-7.2A17.359,17.359,0,0,0,1587.909,528.681Z" transform="translate(-1575.969 -524.86)"/><path class="c" d="M1631.018,630.368a1.977,1.977,0,0,1-3.433,0Z" transform="translate(-1619.871 -618.443)"/></g><path class="h" d="M1589.846,787.432h-11.532a1.341,1.341,0,0,1,0-2.682h11.532a1.341,1.341,0,1,1,0,2.682Z" transform="translate(-1564.141 -750.238)"/><path class="h" d="M1575.388,823.884h-15.755a1.341,1.341,0,0,1,0-2.682h15.755a1.341,1.341,0,0,1,0,2.682Z" transform="translate(-1547.571 -782.57)"/><path class="h" d="M1502.532,963.813h-38.323a.778.778,0,1,1,0-1.556h38.323a.778.778,0,1,1,0,1.556Z" transform="translate(-1463.431 -907.683)"/><path class="h" d="M1502.532,995.809h-38.323a.778.778,0,1,1,0-1.556h38.323a.778.778,0,1,1,0,1.556Z" transform="translate(-1463.431 -936.062)"/><path class="h" d="M1502.532,1027.805h-38.323a.778.778,0,1,1,0-1.556h38.323a.778.778,0,1,1,0,1.556Z" transform="translate(-1463.431 -964.442)"/><g transform="translate(4.749)"><path class="h" d="M1534.441,507.605h-27.6a1.391,1.391,0,0,1-1.389-1.389v-25.44a1.391,1.391,0,0,1,1.389-1.389h27.6a1.391,1.391,0,0,1,1.389,1.389v25.44A1.391,1.391,0,0,1,1534.441,507.605Zm-27.6-27.088a.262.262,0,0,0-.259.259v25.44a.262.262,0,0,0,.259.259h27.6a.262.262,0,0,0,.259-.259v-25.44a.262.262,0,0,0-.259-.259Z" transform="translate(-1505.449 -479.387)"/></g><g transform="translate(7.535 44.812)"><path class="h" d="M1532.687,875.882l.8,1.619,1.787.26-1.293,1.26.305,1.78-1.6-.84-1.6.84.305-1.78-1.293-1.26,1.787-.26Z" transform="translate(-1530.101 -875.882)"/><path class="h" d="M1590.6,875.882l.8,1.619,1.787.26-1.293,1.26.305,1.78-1.6-.84-1.6.84.305-1.78-1.293-1.26,1.787-.26Z" transform="translate(-1581.47 -875.882)"/><path class="h" d="M1648.515,875.882l.8,1.619,1.787.26-1.293,1.26.305,1.78-1.6-.84-1.6.84.305-1.78-1.293-1.26,1.787-.26Z" transform="translate(-1632.838 -875.882)"/><path class="h" d="M1706.43,875.882l.8,1.619,1.787.26-1.293,1.26.305,1.78-1.6-.84-1.6.84.305-1.78-1.293-1.26,1.787-.26Z" transform="translate(-1684.207 -875.882)"/></g></g></g><path class="o" d="M857.936,519.672H780.393l5.485-79.43h74.854Z" transform="translate(-718.088 -404.79)"/><g transform="translate(70.451 20.421)"><rect class="h" width="67.111" height="109.999" transform="translate(0 0)"/><rect class="c" width="61.39" height="103.565" transform="translate(3.515 2.241)"/><g transform="translate(7.072 6.658)"><g transform="translate(14.029 4.785)"><path class="p" d="M1094.724,421.049c-.043-.129-1.117-6.3-1.246-8.7s3.856-2.742,3.856-2.742,3.256-1.756,5.612-.857a9.5,9.5,0,0,1,5.031,4.3c1.071,1.885-.942,7.759-.942,7.759Z" transform="translate(-1087.337 -408.497)"/><path class="q" d="M1039.168,622.9c-.015-.1.275-2.529.286-2.627.542-5.112,6.844-6.55,13.132-6.55,7.388,0,12.4,1.352,13.2,6.664.023.156.45,2.59.428,2.753C1052.521,623.329,1039.168,622.9,1039.168,622.9Z" transform="translate(-1039.167 -590.529)"/><path class="k" d="M1131.411,522.233c-.732,1.081-1.269,1.126-2.063,0-.632-.895-2.742-2.936-2.742-3.968l.866-10.288a1.881,1.881,0,0,1,1.876-1.876h2.063a1.881,1.881,0,0,1,1.876,1.876l.4,10.288C1133.689,519.3,1132.068,521.264,1131.411,522.233Z" transform="translate(-1116.724 -495.07)"/><path class="l" d="M1132.308,506.1h-2.063a1.881,1.881,0,0,0-1.876,1.876l-.752,9.127c2.317.738,5.445-.762,6.829-2.414l-.262-6.713A1.881,1.881,0,0,0,1132.308,506.1Z" transform="translate(-1117.62 -495.07)"/><path class="r" d="M1097.339,618.81l3.308,6.114s1.771-1.456,1.942-1.171a26.157,26.157,0,0,1-.314,3.89,33.9,33.9,0,0,0,4.113-.118c.171-.171-.8-3.915-.4-3.915s1.6,1.085,1.6,1.085l3.693-5.886-.812-.2-6.051,3.256-6.472-3.185Z" transform="translate(-1090.764 -594.865)"/><path class="n" d="M1130.81,638.213l2.457,1.649-.761,4.375,3.313-.185-.828-3.98,2.036-1.859-.957-.9h-4.3Z" transform="translate(-1120.453 -611.451)"/><path class="q" d="M1104.277,591.606l-3.038,2.891s3.1,5.505,3.267,5.505,2.627-3.035,2.627-3.035l1.572-.027,2.484,2.606,2.886-5.106-2.943-3.12s-2.513,4.855-2.97,4.969-.46.171-.83-.114S1104.277,591.606,1104.277,591.606Z" transform="translate(-1094.223 -570.657)"/><ellipse class="k" cx="6.237" cy="8.498" rx="6.237" ry="8.498" transform="translate(7.419 2.637)"/><path class="k" d="M1084.535,493.078c.583,1.228.392,2.539-.426,2.928s-1.955-.291-2.539-1.52-.392-2.539.426-2.928S1083.951,491.85,1084.535,493.078Z" transform="translate(-1076.477 -482.074)"/><path class="k" d="M1204.385,493.078c-.583,1.228-.392,2.539.426,2.928s1.955-.291,2.539-1.52.393-2.539-.426-2.928S1204.969,491.85,1204.385,493.078Z" transform="translate(-1185.413 -482.074)"/><path class="c" d="M1141.044,537.875s-1.239,2.007-2.767,2.007-2.767-2.007-2.767-2.007Z" transform="translate(-1124.621 -523.253)"/><path class="p" d="M1107.137,428.46c2.57-1.8,3.727-1.5,5.655,1.457s4.241,3.008,4.241,3.008l.3-3.065s-2.871-5.555-6.727-4.827a10.175,10.175,0,0,0-6.047,4.2s-.188,6.5.35,6.726.6-2.1.985-2.57-.386-2.7.129-3.727S1107.137,428.46,1107.137,428.46Z" transform="translate(-1097.14 -423.105)"/><path class="p" d="M1200.773,485.439c.9.983.557,4.884,1.028,4.841s.643-3.727.514-4.113S1200.773,485.439,1200.773,485.439Z" transform="translate(-1182.508 -476.743)"/></g><path class="h" d="M1043.539,785.072H1014.89a1.831,1.831,0,0,1,0-3.663h28.649a1.831,1.831,0,0,1,0,3.663Z" transform="translate(-1001.98 -734.477)"/><path class="h" d="M1067.953,834.86h-21.518a1.831,1.831,0,1,1,0-3.663h21.518a1.831,1.831,0,0,1,0,3.663Z" transform="translate(-1029.959 -778.638)"/><path class="h" d="M968.442,1025.982H916.1a1.063,1.063,0,0,1,0-2.125h52.343a1.063,1.063,0,1,1,0,2.125Z" transform="translate(-915.037 -949.523)"/><path class="h" d="M968.442,1069.683H916.1a1.063,1.063,0,1,1,0-2.125h52.343a1.063,1.063,0,1,1,0,2.125Z" transform="translate(-915.037 -988.285)"/><path class="h" d="M968.442,1113.385H916.1a1.063,1.063,0,0,1,0-2.125h52.343a1.063,1.063,0,1,1,0,2.125Z" transform="translate(-915.037 -1027.047)"/><g transform="translate(6.693)"><path class="h" d="M1013.648,404.288h-37.7a1.693,1.693,0,0,1-1.691-1.691V367.851a1.693,1.693,0,0,1,1.691-1.691h37.7a1.692,1.692,0,0,1,1.69,1.691V402.6A1.692,1.692,0,0,1,1013.648,404.288Zm-37.7-37a.561.561,0,0,0-.56.56V402.6a.561.561,0,0,0,.56.56h37.7a.561.561,0,0,0,.56-.56V367.851a.561.561,0,0,0-.56-.56Z" transform="translate(-974.256 -366.16)"/></g><g transform="translate(5.751 61)"><path class="h" d="M969.45,905.881l1.091,2.212,2.441.354-1.766,1.722.417,2.431-2.183-1.148-2.183,1.148.417-2.431-1.766-1.722,2.441-.354Z" transform="translate(-965.918 -905.881)"/><path class="h" d="M1048.552,905.881l1.092,2.212,2.441.354-1.766,1.722.417,2.431-2.183-1.148-2.183,1.148.417-2.431-1.766-1.722,2.441-.354Z" transform="translate(-1036.08 -905.881)"/><path class="h" d="M1127.654,905.881l1.092,2.212,2.441.354-1.766,1.722.417,2.431-2.183-1.148-2.183,1.148.417-2.431-1.766-1.722,2.441-.354Z" transform="translate(-1106.242 -905.881)"/><path class="h" d="M1206.756,905.881l1.091,2.212,2.441.354-1.766,1.722.417,2.431-2.183-1.148-2.183,1.148.417-2.431-1.766-1.722,2.441-.354Z" transform="translate(-1176.404 -905.881)"/><path class="h" d="M1287.115,905.881l1.092,2.212,2.441.354-1.766,1.722.417,2.431-2.183-1.148-2.183,1.148.417-2.431-1.766-1.722,2.441-.354Z" transform="translate(-1247.68 -905.881)"/></g></g></g><rect class="s" width="87.992" height="3.279" rx="1.639" transform="translate(158.29 123.606)"/><g transform="translate(193.051 67.581)"><path class="k" d="M2503.892,784.239c1.167,4.114-1.683,8.353-4.822,9.243s-5.38-1.9-6.547-6.018.432-8.171,3.572-9.061S2502.725,780.126,2503.892,784.239Z" transform="translate(-2429.424 -772.158)"/><path class="k" d="M2411.839,1536.709s8.046,12.5,9.132,13.04,3.8.679,2.785,2.717-1.426,10.052-2.377,10.459-9.1,1.358-7.878,0,1.974-.679,2.591-3.124,1.483-7.063.329-8.014-8.218-9.508-8.218-9.508Z" transform="translate(-2354.972 -1444.914)"/><path class="k" d="M1953.591,1584.192s-9.781,16.12-11.591,17.569-7.788,3.622-2.9,3.985,7.245-1.63,10.324-2.536,6.882-1.449,5.433-3.8-.847-7.495,2.276-10.755S1953.591,1584.192,1953.591,1584.192Z" transform="translate(-1937.219 -1487.03)"/><path class="t" d="M2099.388,1253.368s-24.211-.633-33.811,7.245c-5.615,8.513-19.2,33.629-20.254,36.4.724.725,4.8,2.032,6.611,1.851,5.343-6.371,12.405-11.879,15.214-16.876,3.461-6.158,4.528-9.237,10.143-9.78s18.293-2.355,22.1-2.355S2099.388,1253.368,2099.388,1253.368Z" transform="translate(-2033.106 -1193.585)"/><path class="s" d="M2629.106,1477.292h-1.269l-9.1-37.97h2.792Z" transform="translate(-2541.711 -1358.534)"/><path class="s" d="M2374.112,1466.758h1.269l10.443-39.312h-2.792Z" transform="translate(-2324.733 -1347.999)"/><path class="u" d="M2272.13,1238.789l-14.076,2.43s-18.706.172-27.256,1.765c-7.779,1.449-8.926,10.288,0,22.459,5.07,6.914,9.357,12.429,18.123,18.648,2.23-1.637,3.083-2.257,3.7-6.2-.635-.87-2.277-6.315-2.787-7.38-4.849-10.136-11.321-13.822-11.41-14.819,1.086-1.766,28.784,9.2,34.291,2.751C2277.972,1252.284,2272.13,1238.789,2272.13,1238.789Z" transform="translate(-2192.054 -1180.665)"/><path class="e" d="M2509.939,955.57a14.73,14.73,0,0,0-11.015,2.741c-3.086,3.145-6.577,8.333-6.363,16.889.271,10.867-1.682,11.564.356,14.553,8.5,3.509,23.032,18.587,19.609,2.423-2.478-11.7,5.435-20.428-.948-33.411C2511.058,957.708,2510.409,956.683,2509.939,955.57Z" transform="translate(-2429.278 -929.314)"/><path class="n" d="M2492.562,1000.594c-.166,5.665-.965,7.334-.353,9.11,3.464.354,9.8,1.74,11.385,3.957,1.811,2.536,3.622,2.9,2.777,1.026s-3.079-4.528.363-13.644,5.071-15.274,1.69-21.614Z" transform="translate(-2429.281 -950.619)"/><path class="k" d="M2564.455,866.765a44.221,44.221,0,0,1-2.844-11.476l-5.977,1.766s3.4,7.607.136,10.323a31.03,31.03,0,0,0-2.33,2.128A14.729,14.729,0,0,1,2564.455,866.765Z" transform="translate(-2483.795 -840.508)"/><path class="l" d="M2579.083,859.237c-.354-.315-.8-.708-1.263-1.12l-4.875,1.44-.01.026a19.91,19.91,0,0,1,1.523,5.954,17.19,17.19,0,0,0,4.862-4.829C2579.221,860.153,2579.143,859.656,2579.083,859.237Z" transform="translate(-2501.086 -843.018)"/><path class="k" d="M2328.761,970.524c-6.156,2.153-5.473,8.638-11.138,18.2-2.932,4.949-5.655,4.876-5.655,4.876a131.189,131.189,0,0,1-15.193-.962c-5.208-.637-5.539.914-1.916,2.208,7.305,2.612,14.886,5.423,21,4.744s16.567-16.275,17.106-20.335C2333.708,973.642,2331.862,969.44,2328.761,970.524Z" transform="translate(-2252.303 -942.567)"/><g transform="translate(51.648 41.354)"><path class="s" d="M2415.839,1131.423c-.383,0-.774-.005-1.176-.015a58.565,58.565,0,0,1-11.176-1.376c-3.2-.651-4.969-1.01-7.023-.028a1.582,1.582,0,0,1-1.364-2.855c3.01-1.438,5.53-.927,9.017-.218a55.774,55.774,0,0,0,10.624,1.313c5.3.132,8.536-.655,10.175-2.472,1.46-1.619,1.887-4.339,1.345-8.562-.186-1.445-.372-2.647-.536-3.707a25.692,25.692,0,0,1-.389-8.023c.351-2.837,1.291-6.616,3.467-13.943a1.583,1.583,0,0,1,3.034.9c-4.054,13.654-3.849,14.984-2.983,20.581.167,1.079.355,2.3.547,3.787.669,5.206-.009,8.728-2.133,11.084C2425.078,1130.318,2421.527,1131.423,2415.839,1131.423Z" transform="translate(-2394.199 -1090.406)"/></g><path class="n" d="M1954.255,1704.4c-6.489,3.174-9.982,4.993-12.063,4.819-.491-.041-.9-.091-1.24-.144-2.314,1.368-6.008,2.984-1.852,3.292,4.89.362,7.245-1.63,10.324-2.536s6.882-1.449,5.433-3.8A4.957,4.957,0,0,1,1954.255,1704.4Z" transform="translate(-1937.219 -1593.652)"/><path class="n" d="M2462.274,1654.431c-.159,5.138-.865,10.23-4.007,11.191a5.281,5.281,0,0,1-2.264.2c-.494.611-1.1.618-1.906,1.517-1.223,1.358,6.927.407,7.879,0s1.358-8.422,2.377-10.459C2465.188,1655.209,2463.5,1654.818,2462.274,1654.431Z" transform="translate(-2395.567 -1549.33)"/><g transform="translate(11.179 35.379)"><path class="u" d="M2066.661,1058.638h-20.617a1.582,1.582,0,0,1-1.435-.915l-8.332-17.931a1.582,1.582,0,0,1,2.87-1.333l7.906,17.015h19.607a1.582,1.582,0,0,1,0,3.165Z" transform="translate(-2036.13 -1037.542)"/></g><path class="k" d="M2200.559,1151.73c-4.166-.06-8.3-2.543-10.35-2.181s-8.754,5.011-7.909,5.192,6.158-2.573,6.339-2.614a8.935,8.935,0,0,0,4.166,2.623c2.837.716.02-2.127,8.816.53C2207.34,1157.007,2200.559,1151.73,2200.559,1151.73Z" transform="translate(-2154.536 -1101.479)"/><path class="v" d="M2534.805,913.192l.613,4.932s-5.391.321-8.073,1.83-6.641,5.87-6.641,5.87l3.234-5.568.465-3.562Z" transform="translate(-2454.758 -891.867)"/><path class="v" d="M2378.743,965.836c-4-.75-5.856,2.837-8.452,8.694s-7.028,12.969-7.909,13.886-14.852,0-14.852,0-.423,4.045,0,4.528,2.838.422,2.838.422.966.771,1.871,1.382,8.573,1.758,12.135,1.577,6.822-.483,7.3-1.026,10.2-15.516,10.807-20.889S2380.786,966.218,2378.743,965.836Z" transform="translate(-2300.99 -938.473)"/><path class="w" d="M2470.065,727.242c-7.573.362-6.385,11.754-6.385,11.754s1.967.607,6.087-.072a22.724,22.724,0,0,1-.181-4.347,28.454,28.454,0,0,0,1.087,4.075c.871.4,1.856.045,3.532-.36a7.451,7.451,0,0,0,4.956,5.672c1.839.578,3.786,1.268,5.96.181s.978-12.2-.176-14.429c-1.732-3.353-4.612-6.354-9.592-4.77A37,37,0,0,0,2470.065,727.242Z" transform="translate(-2404.119 -724.512)"/><path class="w" d="M2637.221,861.979l3.1,4.522s-3.431,8.573,6.548,12.457c7.815,3.042,6.9,8.4,3.364,13.792s2.113,10.1,2.113,10.1.861-5.971,8.454-7.1c10.354-1.537,13.286-15.438,5.552-22.389-6.4-5.752-8.346-.988-12.678-6.15s-12.51-1.675-12.51-1.675l-3-4.371Z" transform="translate(-2558.106 -845.719)"/><g transform="translate(82.778 17.846)"><path class="w" d="M2698.661,906.207a.275.275,0,0,1-.241-.408c2.6-4.758.479-10.522-.589-12.084-.114-.166-.221-.333-.335-.511-1.05-1.639-2.357-3.678-9.328-4.933a11.1,11.1,0,0,1-4.478-2.357c-2.973-2.182-6.342-4.656-13.663-1.287a.275.275,0,0,1-.23-.5c7.615-3.505,11.125-.93,14.22,1.343a10.7,10.7,0,0,0,4.25,2.259c7.208,1.3,8.586,3.449,9.694,5.178.112.174.217.338.325.5,1.12,1.636,3.345,7.675.618,12.659A.276.276,0,0,1,2698.661,906.207Z" transform="translate(-2669.637 -882.409)"/></g><g transform="translate(69.371 10.122)"><path class="w" d="M2559.1,824.843a10.918,10.918,0,0,1-1.608-.129c-2.649-.4-6.2-1.9-6.482-10.357a.275.275,0,0,1,.551-.018c.115,3.485.806,6.063,2.055,7.664a5.776,5.776,0,0,0,3.958,2.167c2.452.367,4.077-.085,4.83-1.346a.275.275,0,1,1,.473.283C2562.182,824.261,2560.915,824.843,2559.1,824.843Z" transform="translate(-2551.006 -814.072)"/></g></g><path class="s" d="M1711.333,1300.477h2.035l7.915-60.5h-4.476Z" transform="translate(-1543.813 -1114.138)"/><path class="s" d="M2244.1,1300.477h-2.034l-7.915-60.5h4.476Z" transform="translate(-2007.544 -1114.138)"/><g transform="translate(291.758 121.177)"><path class="x" d="M2999.31,1323.431c3.52,3.214,1.989,6.428-.612,12.4s-3.061,28.007-3.061,28.007l2.143-.306s-.306-22.651,2.6-28.772,4.132-9.183,6.734-7.193S2999.31,1323.431,2999.31,1323.431Z" transform="translate(-2974.721 -1309.337)"/><path class="y" d="M3009.535,1208.665c.428-1.9,2.966-3.965,6.362-5.714-.5,2.809-2.124,7.4-.448,8.344,2.259,1.271.22-5.142,1.092-8.667a41.949,41.949,0,0,1,10.554-3.462c0,.013-.009.026-.014.039-1.99,5.051-4.591,7.04-3.52,7.806.806.575,3.431-5.259,6.9-8.249,2.6-.138,4.8.214,6.106,1.245,2.013,1.593,3.364,3.007,1.339,7.859a9.1,9.1,0,0,1-4.4,1.593c-4.591.459-6.734.612-3.52,2.143,1.574.749,4.212-.042,6.351-.525-.694,1.279-1.547,2.726-2.583,4.374a16.249,16.249,0,0,1-2.151,2.737,6.791,6.791,0,0,1-3.454-.006c-2.142-.918-7.652-3.826-9.029-2.6-1.348,1.2,10.2,1.957,9.4,5-5.6,3.226-12.006,1.691-13.139-1.271C3013.865,1215.334,3008.249,1214.4,3009.535,1208.665Z" transform="translate(-2986.88 -1198.733)"/><path class="x" d="M2977.5,1463.784c-6.122-4.591-12.4-.306-15.61,4.591s-.919,15.917-.919,15.917,1.225,0,1.225-.459-3.367-13.009,4.591-18.671c4.978-3.543,8.571-1.836,9.03-.153s-1.99,4.745-1.99,4.745Z" transform="translate(-2943.264 -1432.09)"/><path class="y" d="M2986.731,1395.649c6.122,0,8.112,9.489,6.428,15s-3.979,15.764-3.979,15.764l-1.531-1.531s5.816-14.386,4.439-20.814-4.745-7.5-5.357-7.5S2986.731,1395.649,2986.731,1395.649Z" transform="translate(-2966.58 -1373.393)"/><path class="x" d="M3022.24,1518.105a4.43,4.43,0,0,1,1.611-1.354,12.151,12.151,0,0,1-.318,1.311c-.767,2.51-1.661,6.005-2.407,9.067-.068-.392-.172-1-.333-1.928-.038-.22-.068-.459-.089-.712A59.412,59.412,0,0,0,3022.24,1518.105Z" transform="translate(-2996.954 -1480.808)"/><path class="y" d="M3024.264,1461.419c11.632-4.9,5.5-11.618,15.758-7.18a1.784,1.784,0,1,1-.765,2.449c-3.061-.459-1.99,1.99,3.061,2.6a11.327,11.327,0,0,1,2.366.5c2.406,4.621,3.491,10.7-1.6,12.815a11.521,11.521,0,0,1-3.624.744c-1.571-1.249.384-8.475-2.039-7.478-2.326.958.729,6.195.311,7.514a33.563,33.563,0,0,1-7.266-1.018,3.619,3.619,0,0,1-1.921-2.211c-.765-3.214,4.285-5.2,4.438-7.958.141-2.532-1.851,5.572-7.128,6.764C3021.082,1466.733,3018.828,1463.708,3024.264,1461.419Z" transform="translate(-2997.305 -1424.076)"/><path class="y" d="M2829.243,1365.451c1.224-2.6-1.99-3.214-1.837-1.224.136,1.763.151,6.048-1.657,7.215a28.364,28.364,0,0,1-10.568-3.51,1.3,1.3,0,0,1,.135-.8c1.377-2.755,10.254-5.051,7.5-5.969-2.194-.731-6.038,3.585-9.136,5.76-1.861-1.412-3.107-3.094-3.107-4.973,0-2.543,3.089-5.421,7.085-6.8,1.8.181,3.468,1.164,6.077,2.643,3.854,2.184,2.963-1.347-.681-3.443a10.977,10.977,0,0,1,8.6,4.718s-.219,1.372,1.234,3.5c3.963,5.792-.61,9.173-6.077,8.953A35.962,35.962,0,0,1,2829.243,1365.451Z" transform="translate(-2810.571 -1336.767)"/><path class="x" d="M3099.444,1476.554c2.993,2.313,6.318,5.017,10.4,6.854s3.265,7.823,3.265,7.823.612-5.17-2.789-6.938-5.646-3.877-8.23-4.286a37.5,37.5,0,0,1-4.014-.816s.816-1.633.34-2.245S3099.444,1476.554,3099.444,1476.554Z" transform="translate(-3065.581 -1445.12)"/><path class="x" d="M3068.287,1236.565c-10.952,2.925-18.979,9.931-20.475,11.632s-1.5,2.177-1.5,2.177l1.156,2.177.544-.272s-.885-1.837,1.428-4.217a41.864,41.864,0,0,1,12.176-8.775C3064.954,1237.857,3068.287,1236.565,3068.287,1236.565Z" transform="translate(-3019.671 -1232.289)"/><path class="u" d="M7.479,0h0a7.479,7.479,0,0,1,7.479,7.479V15a0,0,0,0,1,0,0H0a0,0,0,0,1,0,0V7.479A7.479,7.479,0,0,1,7.479,0Z" transform="translate(27.956 64.896) rotate(180)"/><rect class="c" width="14.959" height="1.053" transform="translate(12.998 51.614)"/><rect class="c" width="14.959" height="0.619" transform="translate(12.998 53.534)"/></g><g transform="translate(13 167.317)"><rect class="b" width="6.299" height="5.669" rx="2.834" transform="translate(29.204 5.669) rotate(180)"/><rect class="b" width="6.299" height="5.669" rx="2.834" transform="translate(17.751 5.669) rotate(180)"/><rect class="b" width="6.299" height="5.669" rx="2.834" transform="translate(6.299 5.669) rotate(180)"/></g><g transform="translate(334.614 62.41)"><path class="b" d="M2.834,0h.63A2.834,2.834,0,0,1,6.3,2.834v0A2.835,2.835,0,0,1,3.464,5.669h-.63A2.834,2.834,0,0,1,0,2.835v0A2.834,2.834,0,0,1,2.834,0Z" transform="translate(5.669 0) rotate(90)"/><path class="b" d="M2.834,0h.63A2.834,2.834,0,0,1,6.3,2.834v0A2.835,2.835,0,0,1,3.464,5.669h-.63A2.834,2.834,0,0,1,0,2.834v0A2.834,2.834,0,0,1,2.834,0Z" transform="translate(5.669 11.452) rotate(90)"/><path class="b" d="M2.834,0h.63A2.834,2.834,0,0,1,6.3,2.834v0A2.835,2.835,0,0,1,3.464,5.669h-.63A2.834,2.834,0,0,1,0,2.835v0A2.834,2.834,0,0,1,2.834,0Z" transform="translate(5.669 22.905) rotate(90)"/></g></g></svg>